<?xml version="1.0" encoding="utf-8"?>
<!-- Generator: Adobe Illustrator 16.0.0, SVG Export Plug-In . SVG Version: 6.00 Build 0)  -->
<!DOCTYPE svg PUBLIC "-//W3C//DTD SVG 1.1//EN" "http://www.w3.org/Graphics/SVG/1.1/DTD/svg11.dtd">
<svg version="1.1" id="Layer_1" xmlns="http://www.w3.org/2000/svg" xmlns:xlink="http://www.w3.org/1999/xlink" x="0px" y="0px"
	 width="800px" height="180px" viewBox="0 0 800 180" enable-background="new 0 0 800 180" xml:space="preserve">
<g>
	<g>
		<path fill="#E7E6E6" d="M157.465,166.665c0,2.679-32.642,4.897-72.905,4.897c-40.273,0-72.906-2.219-72.906-4.897
			c0-2.714,32.633-4.924,72.906-4.924C124.823,161.741,157.465,163.951,157.465,166.665z"/>
		<polygon fill="#231F20" points="91.599,108.401 112.485,114.9 124.004,70.225 103.113,54.38 88.71,59.43 		"/>
		<polygon fill="#FF0F3D" points="72.142,47.179 76.456,26.288 60.609,54.38 83.664,57.988 90.141,47.179 		"/>
		<path fill="#231F20" d="M114.665,30.591l-2.166,5.035l16.562,10.815l1.447-2.886C130.509,43.555,114.665,28.426,114.665,30.591z"
			/>
		<polygon fill="#231F20" points="39.002,163.16 20.267,128.599 57.017,96.898 95.905,105.521 139.128,167.502 74.301,109.854 
			35.395,130.03 		"/>
		<polygon fill="#FF0F3D" points="39.002,163.16 16.672,165.349 33.03,152.099 		"/>
		<polygon fill="#FF0F3D" points="142.744,167.502 124.004,167.502 131.201,155.253 		"/>
		<path fill="#FF0F3D" d="M57.017,96.898c0,0,23.047-36.026,33.124-49.72l12.973,5.046l-7.208,53.297L57.017,96.898z"/>
		<polygon fill="#FFDFC0" points="91.513,54.714 81.23,42.196 95.794,18.164 118.938,31.391 107.504,57.205 		"/>
		<polygon fill="#231F20" points="92.578,23.799 116.35,37.37 122.242,24.15 115.531,14.069 99.366,11.909 		"/>
		<g>
			<polygon fill="#4F4447" points="98.83,50.653 71.418,33.658 80.86,18.426 108.272,35.437 			"/>
			<polygon fill="#E7E6E6" points="105.834,33.91 92.436,25.604 98.852,15.25 112.258,23.559 			"/>
			<path fill="#E7E6E6" d="M93.032,39.256c-2.517,4.039-7.8,5.273-11.842,2.773c-4.043-2.495-5.277-7.807-2.776-11.847
				c2.502-4.022,7.811-5.271,11.842-2.772C94.284,29.92,95.539,35.214,93.032,39.256z"/>
			<path fill="#231F20" d="M90.875,37.924c-1.762,2.85-5.504,3.735-8.356,1.966c-2.851-1.768-3.732-5.513-1.966-8.374
				c1.766-2.847,5.515-3.736,8.382-1.958C91.775,31.329,92.665,35.076,90.875,37.924z"/>
			
				<rect x="96.275" y="19.974" transform="matrix(0.8496 0.5274 -0.5274 0.8496 28.3537 -50.2986)" fill="#4F4447" width="12.207" height="9.194"/>
		</g>
		<polygon fill="#FF0F3D" points="98.069,88.961 98.069,43.579 111.754,85.368 		"/>
		<polygon fill="#231F20" points="65.663,83.916 87.997,50.788 84.381,45.741 		"/>
	</g>
</g>
<g>
	<g>
		<path fill="#FF0F3D" d="M273.18,16.62h18.197l-39.579,105.391h-20.017L192.051,16.62h18.5l31.238,87.649L273.18,16.62z"/>
		<path d="M328.53,123.376c-20.017,0-34.12-11.828-34.878-26.993h17.894c0.606,6.824,7.127,12.436,16.681,12.436
			c10.008,0,15.315-4.246,15.315-10.009c0-16.377-48.525-6.976-48.525-37.607c0-13.344,12.435-24.111,32.148-24.111
			c18.955,0,31.39,10.16,32.299,26.841h-17.287c-0.606-7.279-6.217-12.283-15.619-12.283c-9.25,0-14.103,3.791-14.103,9.402
			c0,16.832,47.161,7.43,48.07,37.607C360.526,112.761,348.243,123.376,328.53,123.376z"/>
		<path d="M430.891,75.305c0-15.316-8.341-23.201-20.927-23.201c-12.738,0-21.079,7.885-21.079,23.201v46.706h-17.287V38.456h17.287
			v9.554c5.611-6.824,14.861-10.918,24.87-10.918c19.562,0,34.271,12.283,34.271,35.636v49.284h-17.135V75.305z"/>
		<path d="M496.098,37.091c14.103,0,23.808,6.672,28.963,13.496V38.456H542.5v83.555h-17.439v-12.435
			c-5.308,7.127-15.315,13.8-29.267,13.8c-21.685,0-39.124-17.742-39.124-43.521S474.109,37.091,496.098,37.091z M499.736,52.104
			c-12.89,0-25.324,9.705-25.324,27.75c0,18.045,12.435,28.509,25.324,28.509c13.041,0,25.324-10.16,25.324-28.206
			C525.061,62.264,512.777,52.104,499.736,52.104z"/>
		<path d="M604.068,37.091c21.988,0,39.275,16.984,39.275,42.763s-17.287,43.521-39.275,43.521
			c-13.799,0-23.656-6.976-29.115-13.497v51.862h-17.287V38.456h17.287v12.283C580.261,43.764,590.421,37.091,604.068,37.091z
			 M600.277,52.104c-12.89,0-25.324,10.16-25.324,28.054c0,18.045,12.435,28.206,25.324,28.206
			c13.041,0,25.476-10.464,25.476-28.509C625.753,61.809,613.318,52.104,600.277,52.104z"/>
		<path fill="#FF0F3D" d="M655.78,16.62h17.287v67.177c0,16.377,9.25,24.111,23.808,24.111c14.709,0,23.959-7.734,23.959-24.111
			V16.62h17.288v66.874c0,26.84-19.41,39.579-41.398,39.579c-22.14,0-40.943-12.738-40.943-39.579V16.62z"/>
	</g>
	<g>
		<path fill="#231F20" d="M227.841,140.935h3.731l7.401,16.532l7.372-16.532h3.701v21.082h-3.458v-14.439l-6.431,14.439h-2.396
			l-6.461-14.439v14.439h-3.458V140.935z"/>
		<path fill="#231F20" d="M260.871,162.29c-4.793,0-8.342-3.397-8.342-8.646s3.397-8.615,8.342-8.615
			c4.763,0,8.129,3.307,8.129,8.221c0,0.576-0.03,1.122-0.121,1.698h-12.771c0.243,2.761,2.214,4.43,4.763,4.43
			c2.124,0,3.307-1.032,3.943-2.336h3.731C267.605,159.954,264.966,162.29,260.871,162.29z M256.139,152.158h9.252
			c-0.061-2.579-2.093-4.217-4.672-4.217C258.383,147.941,256.502,149.519,256.139,152.158z"/>
		<path fill="#231F20" d="M295.175,152.674c0-3.064-1.668-4.642-4.186-4.642c-2.548,0-4.217,1.577-4.217,4.642v9.343h-3.428v-9.343
			c0-3.064-1.668-4.642-4.186-4.642c-2.548,0-4.216,1.577-4.216,4.642v9.343h-3.458v-16.714h3.458v1.91
			c1.122-1.364,2.942-2.184,4.944-2.184c2.639,0,4.854,1.122,6.006,3.307c1.031-2.032,3.397-3.307,5.824-3.307
			c3.913,0,6.886,2.457,6.886,7.129v9.858h-3.428V152.674z"/>
		<path fill="#231F20" d="M309.336,162.29c-4.762,0-8.372-3.397-8.372-8.646s3.761-8.615,8.524-8.615
			c4.762,0,8.524,3.367,8.524,8.615S314.129,162.29,309.336,162.29z M309.336,159.286c2.579,0,5.126-1.85,5.126-5.642
			s-2.457-5.612-5.035-5.612c-2.609,0-4.945,1.82-4.945,5.612S306.728,159.286,309.336,159.286z"/>
		<path fill="#231F20" d="M323.984,162.017h-3.458v-16.714h3.458v2.427c0.971-1.669,2.639-2.7,5.005-2.7v3.579h-0.879
			c-2.548,0-4.125,1.063-4.125,4.611V162.017z"/>
		<path fill="#231F20" d="M330.807,140.873c0-1.243,0.971-2.214,2.215-2.214c1.213,0,2.184,0.971,2.184,2.214
			c0,1.244-0.971,2.215-2.184,2.215C331.777,143.088,330.807,142.117,330.807,140.873z M331.262,145.303h3.458v16.714h-3.458
			V145.303z"/>
		<path fill="#231F20" d="M345.548,162.29c-4.793,0-8.342-3.397-8.342-8.646s3.397-8.615,8.342-8.615c4.763,0,8.13,3.307,8.13,8.221
			c0,0.576-0.031,1.122-0.122,1.698h-12.771c0.243,2.761,2.215,4.43,4.763,4.43c2.124,0,3.307-1.032,3.943-2.336h3.731
			C352.282,159.954,349.643,162.29,345.548,162.29z M340.815,152.158h9.252c-0.061-2.579-2.093-4.217-4.672-4.217
			C343.061,147.941,341.18,149.519,340.815,152.158z"/>
		<path fill="#231F20" d="M362.229,162.29c-4.004,0-6.825-2.366-6.977-5.4h3.579c0.122,1.365,1.426,2.488,3.337,2.488
			c2.002,0,3.064-0.85,3.064-2.003c0-3.275-9.707-1.395-9.707-7.522c0-2.67,2.487-4.823,6.431-4.823
			c3.792,0,6.279,2.032,6.461,5.369h-3.458c-0.122-1.456-1.244-2.457-3.125-2.457c-1.851,0-2.821,0.759-2.821,1.881
			c0,3.367,9.434,1.486,9.616,7.522C368.629,160.166,366.172,162.29,362.229,162.29z"/>
		<path fill="#231F20" d="M378.848,148.123h-1.972v-2.82h1.972v-1.184c0-3.853,1.972-5.521,6.34-5.521v2.882
			c-2.123,0-2.852,0.728-2.852,2.639v1.184h3.094v2.82h-3.094v13.894h-3.488V148.123z"/>
		<path fill="#231F20" d="M394.832,162.29c-4.762,0-8.372-3.397-8.372-8.646s3.761-8.615,8.524-8.615
			c4.762,0,8.524,3.367,8.524,8.615S399.625,162.29,394.832,162.29z M394.832,159.286c2.579,0,5.126-1.85,5.126-5.642
			s-2.457-5.612-5.035-5.612c-2.609,0-4.945,1.82-4.945,5.612S392.224,159.286,394.832,159.286z"/>
		<path fill="#231F20" d="M409.48,162.017h-3.458v-16.714h3.458v2.427c0.971-1.669,2.639-2.7,5.005-2.7v3.579h-0.88
			c-2.548,0-4.125,1.063-4.125,4.611V162.017z"/>
		<path fill="#231F20" d="M427.193,140.935v18.291h7.129v2.791h-10.587v-21.082H427.193z"/>
		<path fill="#231F20" d="M435.836,140.873c0-1.243,0.971-2.214,2.214-2.214c1.214,0,2.185,0.971,2.185,2.214
			c0,1.244-0.971,2.215-2.185,2.215C436.807,143.088,435.836,142.117,435.836,140.873z M436.291,145.303h3.458v16.714h-3.458
			V145.303z"/>
		<path fill="#231F20" d="M443.813,148.123h-1.973v-2.82h1.973v-1.184c0-3.853,1.972-5.521,6.34-5.521v2.882
			c-2.124,0-2.852,0.728-2.852,2.639v1.184h3.094v2.82h-3.094v13.894h-3.488V148.123z"/>
		<path fill="#231F20" d="M459.736,162.29c-4.793,0-8.343-3.397-8.343-8.646s3.397-8.615,8.343-8.615
			c4.762,0,8.129,3.307,8.129,8.221c0,0.576-0.03,1.122-0.121,1.698h-12.771c0.242,2.761,2.214,4.43,4.763,4.43
			c2.123,0,3.306-1.032,3.943-2.336h3.73C466.47,159.954,463.831,162.29,459.736,162.29z M455.004,152.158h9.252
			c-0.061-2.579-2.094-4.217-4.672-4.217C457.248,147.941,455.367,149.519,455.004,152.158z"/>
		<path fill="#231F20" d="M470.896,148.123h-1.972v-2.82h1.972v-4.156h3.488v4.156h4.064v2.82h-4.064v9.252
			c0,1.244,0.485,1.76,1.941,1.76h2.123v2.882h-2.729c-2.973,0-4.823-1.244-4.823-4.642V148.123z"/>
		<path fill="#231F20" d="M480.268,140.873c0-1.243,0.971-2.214,2.214-2.214c1.214,0,2.185,0.971,2.185,2.214
			c0,1.244-0.971,2.215-2.185,2.215C481.238,143.088,480.268,142.117,480.268,140.873z M480.723,145.303h3.458v16.714h-3.458
			V145.303z"/>
		<path fill="#231F20" d="M511.51,152.674c0-3.064-1.668-4.642-4.186-4.642c-2.548,0-4.217,1.577-4.217,4.642v9.343h-3.428v-9.343
			c0-3.064-1.668-4.642-4.186-4.642c-2.549,0-4.217,1.577-4.217,4.642v9.343h-3.458v-16.714h3.458v1.91
			c1.122-1.364,2.942-2.184,4.944-2.184c2.639,0,4.854,1.122,6.006,3.307c1.032-2.032,3.397-3.307,5.824-3.307
			c3.913,0,6.887,2.457,6.887,7.129v9.858h-3.429V152.674z"/>
		<path fill="#231F20" d="M525.611,162.29c-4.793,0-8.343-3.397-8.343-8.646s3.397-8.615,8.343-8.615
			c4.762,0,8.129,3.307,8.129,8.221c0,0.576-0.03,1.122-0.121,1.698h-12.771c0.242,2.761,2.214,4.43,4.763,4.43
			c2.123,0,3.306-1.032,3.943-2.336h3.73C532.345,159.954,529.706,162.29,525.611,162.29z M520.879,152.158h9.252
			c-0.061-2.579-2.094-4.217-4.672-4.217C523.123,147.941,521.242,149.519,520.879,152.158z"/>
		<path fill="#231F20" d="M537.62,162.229c-1.244,0-2.215-0.971-2.215-2.214c0-1.244,0.971-2.215,2.215-2.215
			c1.213,0,2.184,0.971,2.184,2.215C539.804,161.258,538.833,162.229,537.62,162.229z"/>
	</g>
</g>
<circle fill="none" stroke="#000000" stroke-width="3" stroke-miterlimit="10" cx="772.563" cy="33.172" r="18.937"/>
<g>
	<path d="M769.297,34.3v7.622h-2.426V23.454h5.999c2.077,0,3.663,0.505,4.756,1.517c1.092,1.014,1.639,2.254,1.639,3.72
		c0,1.465-0.399,2.686-1.199,3.664c-0.799,0.978-2,1.59-3.598,1.839l5.091,7.729h-3.038l-4.852-7.622H769.297z M769.297,25.398
		v6.982h3.573c1.331,0,2.321-0.307,2.97-0.919c0.647-0.612,0.974-1.469,0.974-2.57c0-2.329-1.315-3.493-3.943-3.493H769.297z"/>
</g>
</svg>
